<?xml version="1.0" encoding="UTF-8" standalone="no"?>
<!-- Created with Inkscape (http://www.inkscape.org/) -->
<svg
   xmlns:dc="http://purl.org/dc/elements/1.1/"
   xmlns:cc="http://web.resource.org/cc/"
   xmlns:rdf="http://www.w3.org/1999/02/22-rdf-syntax-ns#"
   xmlns:svg="http://www.w3.org/2000/svg"
   xmlns="http://www.w3.org/2000/svg"
   xmlns:xlink="http://www.w3.org/1999/xlink"
   xmlns:sodipodi="http://sodipodi.sourceforge.net/DTD/sodipodi-0.dtd"
   xmlns:inkscape="http://www.inkscape.org/namespaces/inkscape"
   width="640"
   height="480"
   id="svg2"
   sodipodi:version="0.32"
   inkscape:version="0.45.1"
   version="1.0"
   sodipodi:docbase="/home/yves/python/PROJET_I4/annexes"
   sodipodi:docname="Emblème.svg"
   inkscape:output_extension="org.inkscape.output.svg.inkscape">
  <defs
     id="defs4">
    <linearGradient
       id="linearGradient3149">
      <stop
         style="stop-color:#faff00;stop-opacity:1;"
         offset="0"
         id="stop3152" />
      <stop
         id="stop3158"
         offset="0.41818181"
         style="stop-color:#ff9700;stop-opacity:1;" />
      <stop
         style="stop-color:#ff0000;stop-opacity:1;"
         offset="1"
         id="stop3154" />
    </linearGradient>
    <linearGradient
       id="linearGradient4142">
      <stop
         id="stop4144"
         offset="0"
         style="stop-color:#008080;stop-opacity:1;" />
      <stop
         id="stop4146"
         offset="1"
         style="stop-color:#008080;stop-opacity:0;" />
    </linearGradient>
    <linearGradient
       id="linearGradient4132">
      <stop
         style="stop-color:#008080;stop-opacity:1;"
         offset="0"
         id="stop4134" />
      <stop
         style="stop-color:#008080;stop-opacity:0;"
         offset="1"
         id="stop4136" />
    </linearGradient>
    <linearGradient
       id="linearGradient3147">
      <stop
         style="stop-color:#000000;stop-opacity:1;"
         offset="0"
         id="stop3149" />
      <stop
         id="stop3157"
         offset="0.33322313"
         style="stop-color:#ff0000;stop-opacity:1;" />
      <stop
         style="stop-color:#feb000;stop-opacity:1;"
         offset="0.9030143"
         id="stop2197" />
      <stop
         style="stop-color:#fdff00;stop-opacity:1;"
         offset="1"
         id="stop3151" />
    </linearGradient>
    <filter
       inkscape:collect="always"
       id="filter5447">
      <feGaussianBlur
         inkscape:collect="always"
         stdDeviation="2.1051429"
         id="feGaussianBlur5449" />
    </filter>
    <linearGradient
       inkscape:collect="always"
       xlink:href="#linearGradient3147"
       id="linearGradient5463"
       x1="144.99934"
       y1="190.96332"
       x2="434.41846"
       y2="356.60873"
       gradientUnits="userSpaceOnUse"
       gradientTransform="matrix(0.9477112,0,0,1.0597508,23.496771,-46.944955)" />
    <linearGradient
       inkscape:collect="always"
       xlink:href="#linearGradient3147"
       id="linearGradient2183"
       x1="160.91428"
       y1="155.42857"
       x2="435.20001"
       y2="330.97144"
       gradientUnits="userSpaceOnUse" />
    <linearGradient
       inkscape:collect="always"
       xlink:href="#linearGradient3147"
       id="linearGradient2189"
       x1="160.91428"
       y1="155.42857"
       x2="435.20001"
       y2="330.97144"
       gradientUnits="userSpaceOnUse" />
    <linearGradient
       inkscape:collect="always"
       xlink:href="#linearGradient3147"
       id="linearGradient2191"
       x1="190.7016"
       y1="198.91954"
       x2="428.99637"
       y2="346.5369"
       gradientUnits="userSpaceOnUse" />
    <linearGradient
       inkscape:collect="always"
       xlink:href="#linearGradient3147"
       id="linearGradient2193"
       x1="160.91428"
       y1="155.42857"
       x2="435.20001"
       y2="330.97144"
       gradientUnits="userSpaceOnUse" />
  </defs>
  <sodipodi:namedview
     id="base"
     pagecolor="#ffffff"
     bordercolor="#666666"
     borderopacity="1.0"
     inkscape:pageopacity="0.0"
     inkscape:pageshadow="2"
     inkscape:zoom="1.09375"
     inkscape:cx="320"
     inkscape:cy="242.08979"
     inkscape:document-units="px"
     inkscape:current-layer="layer1"
     width="640px"
     height="480px"
     borderlayer="true"
     inkscape:showpageshadow="false"
     inkscape:window-width="1280"
     inkscape:window-height="741"
     inkscape:window-x="0"
     inkscape:window-y="59" />
  <metadata
     id="metadata7">
    <rdf:RDF>
      <cc:Work
         rdf:about="">
        <dc:format>image/svg+xml</dc:format>
        <dc:type
           rdf:resource="http://purl.org/dc/dcmitype/StillImage" />
      </cc:Work>
    </rdf:RDF>
  </metadata>
  <g
     inkscape:label="Calque 1"
     inkscape:groupmode="layer"
     id="layer1">
    <path
       style="opacity:1;fill:url(#linearGradient5463);fill-opacity:1.0"
       d="M 327.70026,52.859915 C 214.78395,52.859915 123.13762,121.02325 123.13762,204.99462 C 123.13762,288.96599 214.78396,357.08506 327.70026,357.08505 C 421.55155,357.08505 500.6768,309.99567 524.73056,245.88247 C 491.45334,269.54385 441.50066,284.60204 385.6885,284.60204 C 285.57714,284.60205 204.33558,236.17029 204.33558,176.49702 C 204.33558,116.82374 285.57714,68.391998 385.6885,68.391998 C 398.96264,68.391998 411.89386,69.298074 424.35935,70.9143 C 395.56918,59.404703 362.65547,52.859915 327.70026,52.859915 z "
       id="path2169" />
    <path
       sodipodi:type="arc"
       style="opacity:1;fill:url(#linearGradient2191);fill-opacity:1.0;fill-rule:nonzero;filter:url(#filter5447)"
       id="path3159"
       sodipodi:cx="375.77142"
       sodipodi:cy="213.48572"
       sodipodi:rx="78.628571"
       sodipodi:ry="61.714287"
       d="M 454.39999 213.48572 A 78.628571 61.714287 0 1 1  297.14285,213.48572 A 78.628571 61.714287 0 1 1  454.39999 213.48572 z"
       transform="matrix(1.1510354,0,0,1.1891749,-58.590014,-81.121551)" />
    <path
       style="opacity:1;fill:url(#linearGradient2193);fill-opacity:1.0;fill-rule:nonzero"
       d="M 47.139512,85.320061 L 72.912903,135.08544 L 96.795087,181.19856 C 105.53396,148.16488 126.1222,116.66368 155.50462,90.310677 L 103.13387,87.868493 L 47.139512,85.320061 z "
       id="path6461" />
    <path
       style="fill:url(#linearGradient2189);fill-opacity:1.0;fill-rule:nonzero"
       d="M 598.48133,87.403002 L 544.63137,90.877707 L 494.73328,94.097637 C 520.47994,114.58146 540.29164,144.92049 552.1621,181.02226 L 574.57403,135.78962 L 598.48133,87.403002 z "
       id="path8411" />
    <path
       style="opacity:1;fill:url(#linearGradient2183);fill-opacity:1.0;fill-rule:nonzero"
       d="M 260.51148,365.51194 L 287.77014,414.46473 L 319.46537,471.20032 L 352.77733,415.40467 L 380.11117,369.61014 C 364.1649,372.18768 347.61296,373.55794 330.63201,373.55794 C 306.19233,373.55794 282.64221,370.72243 260.51148,365.51194 z "
       id="path8417" />
    <path
       sodipodi:type="arc"
       style="opacity:1;fill:#000000;fill-opacity:1;fill-rule:nonzero"
       id="path8424"
       sodipodi:cx="314.05713"
       sodipodi:cy="25.142857"
       sodipodi:rx="11.428572"
       sodipodi:ry="11.428572"
       d="M 325.4857 25.142857 A 11.428572 11.428572 0 1 1  302.62856,25.142857 A 11.428572 11.428572 0 1 1  325.4857 25.142857 z"
       transform="matrix(1.0597508,0,0,1.0597508,-8.6301141,-3.5622965)" />
    <path
       sodipodi:type="arc"
       style="opacity:1;fill:#000000;fill-opacity:1;fill-rule:nonzero"
       id="path9395"
       sodipodi:cx="314.05713"
       sodipodi:cy="25.142857"
       sodipodi:rx="11.428572"
       sodipodi:ry="11.428572"
       d="M 325.4857 25.142857 A 11.428572 11.428572 0 1 1  302.62856,25.142857 A 11.428572 11.428572 0 1 1  325.4857 25.142857 z"
       transform="matrix(1.0597508,0,0,1.0597508,202.76859,270.37471)" />
    <path
       sodipodi:type="arc"
       style="opacity:1;fill:#000000;fill-opacity:1;fill-rule:nonzero;stroke:none;stroke-opacity:1"
       id="path9397"
       sodipodi:cx="314.05713"
       sodipodi:cy="25.142857"
       sodipodi:rx="11.428572"
       sodipodi:ry="11.428572"
       d="M 325.4857 25.142857 A 11.428572 11.428572 0 1 1  302.62856,25.142857 A 11.428572 11.428572 0 1 1  325.4857 25.142857 z"
       transform="matrix(1.0597508,0,0,1.0597508,-211.55078,269.4058)" />
  </g>
</svg>
